<svg xmlns="http://www.w3.org/2000/svg" width="224" height="160"><g transform="translate(0,96)"><path d="m 126.5,91 1.25,12.5 L 200,54.25 z" transform="translate(0,-96)" fill="#faf4b7"/><path d="m 142.81836,-67.791356 c -5.46448,0.50511 -11.78486,3.36509 -16.05187,8.97477 -4.55147,5.983671 -7.7534,15.538621 -4.11092,23.656091 3.51752,7.83896 14.11434,11.628699 23.12607,11.676289 8.98883,-0.64388 19.31161,-5.126609 22.30264,-13.181169 3.09728,-8.34073 -0.72997,-17.66283 -5.66747,-23.332171 -4.6289,-5.315 -11.70189,-7.7313 -17.18781,-7.87367 -0.85072,-0.026 -1.62897,0.0222 -2.41064,0.0799 z" fill="#c4eefb" stroke="#5f6a6e" stroke-width="3" stroke-linecap="round" stroke-linejoin="round" stroke-miterlimit="3.3"/><path d="m 112.25,79 -0.5,19.5 88.75,-44.75 z" transform="translate(0,-96)" fill="#fdffe1"/><path d="m 153.21337,-81.465556 c 4.6207,4.36017 5.16365,9.28448 4.6299,13.55864 3.75363,-4.14686 4.26993,-10.64764 4.26993,-10.64764 0,0 3.94881,9.79371 -2.27474,15.46963 0,0 -0.11984,-0.0255 -0.13686,-0.0272 -2.04886,-1.55247 -4.34808,-2.79088 -6.84972,-3.61372 3.17749,-3.42754 2.49118,-8.9432 0.36149,-14.7397 z" fill="#5f6a6e"/><path d="m 120.17182,-76.203946 c 5.62082,0.763066 11.86708,6.189401 13.4401,12.197365 0,0 -1.17854,0.923164 -3.30085,1.744231 -1.44412,0.558872 -2.36678,0.666177 -2.36678,0.666177 -0.53927,-7.744248 -4.62016,-11.411595 -7.77247,-14.607763 z m 0.42148,5.770536 c 2.60711,4.539561 3.8835,5.854313 7.31893,8.86669 l -2.04319,3.997794 c -4.14548,-3.148613 -5.67554,-9.372742 -5.27574,-12.864484 z" fill="#5f6a6e"/><path d="m -209.48038,43.143768 c 0,3.124195 -2.53266,5.656854 -5.65686,5.656854 -3.12419,0 -5.65685,-2.532659 -5.65685,-5.656854 0,-3.124194 2.53266,-5.656854 5.65685,-5.656854 3.1242,0 5.65686,2.53266 5.65686,5.656854 z" transform="matrix(1.1204385,-0.03711586,0.03465983,1.0462969,381.59463,-104.89582)" fill="#5f6a6e"/><path transform="matrix(0.99814054,-0.0330646,0.03087664,0.93209162,373.60567,-100.40968)" d="m -209.48038,43.143768 a 5.6568542,5.6568542 0 1 1 -11.31371,0 5.6568542,5.6568542 0 1 1 11.31371,0 z" fill="#5f6a6e"/><path d="m -212.48559,45.618641 c 0,1.85499 -1.10804,3.358757 -2.47487,3.358757 -1.36684,0 -2.47488,-1.503767 -2.47488,-3.358757 0,-1.854991 1.10804,-3.358757 2.47488,-3.358757 1.36683,0 2.47487,1.503766 2.47487,3.358757 z" transform="matrix(1.4154109,-0.04688717,0.03143507,0.94894906,445.76135,-106.13679)" fill="#fff"/><path transform="matrix(1.2894397,-0.04271422,0.02863735,0.86449284,436.60037,-102.64602)" d="m -212.48559,45.618641 a 2.4748738,3.3587573 0 1 1 -4.94975,0 2.4748738,3.3587573 0 1 1 4.94975,0 z" fill="#fff"/><path d="M 84,61.5 112.5,79.25 201.25,53.5 z" transform="translate(0,-96)" fill="#fffbc0"/><path d="m 176.94746,-34.753945 -64.48642,17.869499" fill="#9eabb0" stroke="#748186" stroke-width="2.5" stroke-linecap="round" stroke-linejoin="round" stroke-dasharray="10,5,2.5,5" stroke-dashoffset="16.5"/><path d="m 112.76598,-16.948946 -30.143926,-17.492369 120.300076,-8.26823 -75.27238,49.8690892 -1.39479,-11.15431" fill="none" stroke="#5f6a6e" stroke-width="3" stroke-linecap="round" stroke-linejoin="round" stroke-dashoffset="10.8"/><path d="m 112.63391,-15.999816 -0.86442,18.7541202 85.4056,-43.3467992" fill="none" stroke="#5f6a6e" stroke-width="3.5" stroke-linecap="round" stroke-linejoin="round" stroke-dashoffset="26.4"/><path d="m 96.679189,-1.5622958 c 0,0 -17.702116,3.82019 -37.071285,28.5799108 -18.891743,24.14942 -37.530034,18.98431 -37.530034,18.98431" fill="none" stroke="#9eabb0" stroke-width="5" stroke-linecap="round" stroke-linejoin="round" stroke-dasharray="20,10,5,10" stroke-dashoffset="45.5"/></g></svg>