<svg xmlns="http://www.w3.org/2000/svg" width="96" height="96"><defs><linearGradient id="a"><stop offset="0" stop-color="#f5f5f5"/><stop offset="1" stop-color="#fff"/></linearGradient></defs><rect ry="5.228" rx="5.668" y="16.18" x="19.362" height="63.64" width="57.276" fill="#a5e2f5"/><path fill="#feffef" d="M20.319 25.019H75.577V69.92H20.319z"/><path stroke-miterlimit="3.3" d="m 26.654327,57.870699 5.164916,0" fill="#86a6da" stroke="#afc2ee" stroke-width="4" stroke-linecap="round" stroke-linejoin="round" stroke-dasharray="12,12" stroke-dashoffset="2"/><path d="m 76.279327,56.620031 -26.625,13.3125 26.625,0 0,-13.3125 z" fill="#adf3ad"/><path d="m -89.443145,51.804208 c -5.325607,3.308118 -3.688684,-1.967704 -9.212515,-4.93307 -5.52383,-2.965366 -9.02235,1.338537 -9.22981,-4.930323 -0.20746,-6.26886 3.56158,-2.209525 8.8899,-5.520826 5.328322,-3.311301 3.342714,-8.468321 8.870799,-5.503119 5.528084,2.965202 0.139499,4.181726 0.339512,10.447269 0.200013,6.265544 5.667722,7.131951 0.342114,10.440069 z" transform="translate(157.887 -1.991)" fill="#f9abab"/><path d="m -98.994952,55.694912 a 9.5459414,9.5459414 0 1 1 -19.091878,0 9.5459414,9.5459414 0 1 1 19.091878,0 z" transform="translate(142.399 -12.877)" fill="#e6a5ff"/><path d="m 40.48699,42.52183 a 5.656855,5.656855 0 0 1 -11.31371,0 5.656855,5.656855 0 1 1 11.31371,0 z" fill="#5f6a6e"/><path d="m 66.82672,42.52183 a 5.656855,5.656855 0 0 1 -11.31371,0 5.656855,5.656855 0 1 1 11.31371,0 z" fill="#5f6a6e"/><path stroke-miterlimit="3.3" d="m 56.927212,54.747581 c 0,2.0991 -4.03643,3.8007 -9.01561,3.8007 -4.97918,0 -9.01561,-1.7016 -9.01561,-3.8007" fill="none" stroke="#5f6a6e" stroke-width="3" stroke-linecap="round" stroke-linejoin="round"/><path stroke-miterlimit="3.3" d="m 26.654327,64.870699 15.000005,0" fill="#9eabb0" stroke="#afc2ee" stroke-width="4" stroke-linecap="round" stroke-linejoin="round" stroke-dasharray="8,8" stroke-dashoffset="20"/><path d="m 38.784879,41.596888 a 3.1264235,3.0462588 0 0 1 -6.252847,0 3.1264235,3.0462588 0 1 1 6.252847,0 z" fill="#fff"/><path d="m 64.926343,41.527987 a 3.197147,3.115169 0 0 1 -6.394294,0 3.197147,3.115169 0 1 1 6.394294,0 z" fill="#fff"/><path d="m 19.362173,24.665477 56.21499,0" fill="none" stroke="#748186" stroke-width="2" stroke-linecap="round" stroke-linejoin="round"/><path d="m 19.362173,70.965281 56.21499,0" fill="none" stroke="#748186" stroke-width="2" stroke-linecap="round" stroke-linejoin="round"/><rect width="57.276" height="63.64" x="19.362" y="16.18" rx="5.668" ry="5.228" fill="none" stroke="#5f6a6e" stroke-width="3" stroke-linecap="round" stroke-linejoin="round"/></svg>