<svg xmlns="http://www.w3.org/2000/svg" xmlns:xlink="http://www.w3.org/1999/xlink" width="96" height="112"><defs><linearGradient id="a"><stop offset="0" stop-opacity=".376"/><stop offset="1" stop-opacity="0"/></linearGradient><radialGradient xlink:href="#a" id="b" cx="40.139" cy="63.627" fx="40.139" fy="63.627" r="48.25" gradientTransform="matrix(0.82780316,0.00366376,-0.00221293,0.4999951,9.066399,35.684301)" gradientUnits="userSpaceOnUse"/></defs><path d="m 93.25,71.125 a 48.25,24.125 0 1 1 -96.5,0 48.25,24.125 0 1 1 96.5,0 z" transform="matrix(1.1554404,0,0,1.1554404,-3.4948187,-6.3734171)" fill="url(#b)"/><path d="m 10,45.557281 36.75,-21 39.5,21 -38.5,19 z" fill="#abc1e5"/><path d="m 9.5,46.807281 -0.5,28.25 38.5,19.000001 0.75,-28.750001 z" fill="#b5e1f3"/><path d="m 48,66.307281 38.25,-20.5 -0.25,28 -38,19.000001 z" fill="#d7f4fb"/><path d="M 76.87408,51.040199 C 76.34125,43.67121 74.81362,38.4138 73.04289,35.0929 73.99264,24.645799 74.86812,19.280209 69.6875,13.567719 c -4.12703,0.51801 -9.13978,3.22526 -13.3125,8.4375 -5.73056,-0.9977 -11.41572,-0.17086 -14.8125,0.8125 -5.69596,-5.05495 -15.048892,-5.952908 -22.40625,-3.5 -1.20464,7.97661 -0.72386,13.659822 3.599576,20.568327 -1.9909,1.93929 -2.389606,6.167034 -3.943326,9.275424 L 48,64.540332 z" fill="#ffeea1"/><path d="m 47.5,65.307281 38.25,8.5 -38,19.750001 z" fill="#bfe8f9"/><path d="m 47.4636,93.162692 0,-20.859653" fill="none" stroke="#758287" stroke-width="3" stroke-linecap="round" stroke-linejoin="round" stroke-dasharray="12,6"/><path d="m 42.426407,23.245205 c 0,0 -6.540738,8.485282 -6.010408,16.793786 0.53033,8.308505 7.721781,14.300115 11.490485,15.55635 6.894292,2.298096 15.202796,1.944543 15.202796,1.944543 l 13.258252,-6.894291 c 0,0 0.02013,-9.856101 -3.358757,-16.08668 2.623323,-9.56634 1.083797,-16.357448 -3.358757,-21.213203 -4.419417,1.015251 -8.838835,2.441866 -13.258252,9.015611 -9.389887,-2.108856 -10.268545,-0.902743 -13.965359,0.883884 z" fill="#fff2b5"/><path stroke-miterlimit="3.3" d="M 81.3045,42.821781 75.36382,39.03554 m -57.48045,2.1778 -8.28311,4.91237" fill="none" stroke="#5f6a6e" stroke-width="3" stroke-linecap="round" stroke-linejoin="round" stroke-dashoffset="7.5"/><path d="m 76.87408,49.790199 c 0,0 -0.31046,-7.001399 -3.83119,-14.697299 0,0 3.07523,-16.187691 -3.35539,-21.525181 -4.12703,0.51801 -9.13978,3.22526 -13.3125,8.4375 -5.73056,-0.9977 -11.41572,-0.17086 -14.8125,0.8125 -6.07096,-4.92995 -16.048892,-5.452908 -22.40625,-3.5 -1.20464,7.97661 -0.418775,14.981856 3.904661,20.873412 -1.9909,1.93929 -2.694691,5.861949 -4.248411,8.970339" fill="none" stroke="#757266" stroke-width="2.5" stroke-linecap="round" stroke-linejoin="round"/><path d="m 52.89171,41.977447 a 5.656855,5.656855 0 0 1 -11.31371,0 5.656855,5.656855 0 1 1 11.31371,0 z" fill="#5f6a6e"/><path d="m 70.256789,39.516659 a 5.0245792,5.0245792 0 1 1 -10.049158,0 5.0245792,5.0245792 0 1 1 10.049158,0 z" fill="#5f6a6e"/><path d="m 51.189599,41.052505 a 3.1264235,3.0462588 0 0 1 -6.252847,0 3.1264235,3.0462588 0 1 1 6.252847,0 z" fill="#fff"/><path d="m 68.568844,38.633894 a 2.839797,2.766982 0 0 1 -5.679594,0 2.839797,2.766982 0 1 1 5.679594,0 z" fill="#fff"/><path d="m 61.30121,46.75683 c -0.10009,1.28202 -0.88582,2.44291 -2.24853,2.79028 -1.73881,0.44324 -3.60805,-0.33867 -4.12668,-1.53234" fill="none" stroke="#757266" stroke-width="2" stroke-linecap="round" stroke-linejoin="round"/><path d="m 31.396115,29.11844 c -2.697218,0.0093 -0.341359,3.583689 -1.201405,5.145932 -0.700074,2.790285 -4.478447,2.256707 -5.126453,-0.292963 -1.320351,-3.060929 -2.255162,-7.251971 0.453957,-9.48129 2.488341,-1.726454 7.304128,-1.509841 9.764364,0.14873 1.796877,1.108013 1.408829,3.968315 -0.699391,4.425979 -1.03131,0.32728 -2.142065,0.240267 -3.191072,0.05361 z" fill="#f8db4e"/><path d="m 65.917819,18.845101 c 1.157108,-0.34484 2.386683,0.196643 3.171589,1.053086 1.403952,2.376061 1.689126,7.182446 0.592154,9.142812 -1.074767,1.166954 -1.588039,1.103349 -2.097927,-0.468218 0.165967,-4.839582 -1.433779,-6.416299 -2.962182,-4.112448 -0.749367,0.85238 -1.008618,1.787464 -2.176911,1.612219 -0.964396,-0.16204 -1.487095,-1.232473 -1.359995,-2.138541 0.615357,-2.175609 2.902172,-4.477192 4.833272,-5.08891 z" fill="#fbdf63"/><path stroke-miterlimit="3.3" d="m 86.21875,46.099 c -0.18846,-3.6e-4 -0.19602,-0.14997 -0.48483,-0.002 L 48.95267,64.909499 c -0.85354,0.53376 -1.3935,0.52806 -2.32767,-0.029 L 10.5,46.443 C 9.93262,46.15375 9.46875,46.17509 9.46875,46.4742 l 0,27.437501 c 0,0.29916 0.46387,0.77325 1.03125,1.0625 l 36.125,18.406251 c 0.62212,0.21837 1.52461,0.21448 2.0625,0.0312 L 85.46875,74.598951 c 0.57763,-0.29536 1.0625,-0.76592 1.0625,-1.062452 l 0,-27.187499 c 0,-0.14826 -0.12404,-0.24964 -0.3125,-0.25 z" fill="none" stroke="#5f6a6e" stroke-width="3" stroke-linecap="round" stroke-linejoin="round"/></svg>