<svg xmlns="http://www.w3.org/2000/svg" width="96" height="96"><path stroke-miterlimit="3.3" d="m 21.236047,16.929872 c -0.82176,0 -1.466089,0.76887 -1.466089,1.70752 l 0,58.725136 c 0,0.9387 0.644329,1.7076 1.466089,1.7076 l 53.527905,0 c 0.82176,0 1.46609,-0.7689 1.46609,-1.7076 l 0,-37.967096 -20.68123,-22.46556 -34.312765,0 z" fill="#d7f4fb" stroke="#5f6a6e" stroke-width="3" stroke-linecap="round" stroke-linejoin="round"/><path stroke-miterlimit="3.3" d="m 56.438462,18.282682 c -0.65425,-0.65425 -1.47019,-0.95445 -2.077129,-0.79549 -0.0924,0.20633 -0.11048,0.44043 -0.11048,0.68501 l -0.0221,19.46753 c 0,0.87611 0.65726,1.5689 1.48051,1.56889 l 20.37351,0 c 0.0472,1e-5 0.0865,0.005 0.132579,0 0.101571,-0.59454 -0.2011,-1.35015 -0.81759,-1.96664 l -18.9593,-18.9593 z" fill="#bfe8f9" stroke="#5f6a6e" stroke-width="2.5" stroke-linejoin="round" stroke-dashoffset=".3"/><path d="m 40.62961,53.00711 a 5.656855,5.656855 0 1 1 -11.31371,0 5.656855,5.656855 0 1 1 11.31371,0 z" fill="#5f6a6e"/><path d="m 66.96934,53.00711 a 5.656855,5.656855 0 1 1 -11.31371,0 5.656855,5.656855 0 1 1 11.31371,0 z" fill="#5f6a6e"/><path stroke-miterlimit="3.3" d="m 57.069832,64.232428 c 0,2.0991 -4.03643,3.8007 -9.01561,3.8007 -4.97918,0 -9.01561,-1.7016 -9.01561,-3.8007" fill="none" stroke="#5f6a6e" stroke-width="3" stroke-linecap="round" stroke-linejoin="round"/><path d="m 38.927499,52.082168 a 3.1264235,3.0462588 0 1 1 -6.252847,0 3.1264235,3.0462588 0 1 1 6.252847,0 z" fill="#fff"/><path d="m 65.068963,52.013267 a 3.197147,3.115169 0 1 1 -6.394294,0 3.197147,3.115169 0 1 1 6.394294,0 z" fill="#fff"/><path stroke-miterlimit="3.3" d="m 29.968747,28.034912 15.000005,0" fill="#86a6da" stroke="#86a6da" stroke-width="4" stroke-linecap="round" stroke-linejoin="round" stroke-dasharray="12,12" stroke-dashoffset="2"/><path stroke-miterlimit="3.3" d="m 29.968747,37.034912 15.000005,0" fill="#9eabb0" stroke="#86a6da" stroke-width="4" stroke-linecap="round" stroke-linejoin="round" stroke-dasharray="8,8" stroke-dashoffset="20"/></svg>