<svg xmlns="http://www.w3.org/2000/svg" xmlns:xlink="http://www.w3.org/1999/xlink" width="96" height="96"><defs><linearGradient id="a"><stop offset="0" stop-color="#f5f5f5"/><stop offset="1" stop-color="#fff"/></linearGradient><linearGradient xlink:href="#a" id="b" x1="47.919" y1="15.148" x2="47.864" y2="27.898" gradientUnits="userSpaceOnUse" gradientTransform="matrix(.99703 0 0 .98519 0 .672)"/></defs><path d="m 77.59199,26.393383 c -2.072875,-2.467358 -5.351393,-4.063892 -9.035588,-4.063892 -2.121762,0 -4.097788,0.529607 -5.795243,1.446992 -2.371925,-4.923094 -8.153487,-8.404871 -14.924302,-8.404871 -6.774893,0 -12.555079,3.477078 -14.924303,8.404871 -1.665599,-0.76012 -3.537235,-1.200697 -5.514825,-1.200697 -3.561993,0 -6.778472,1.379469 -9.06675,3.602089 l -3.706002,4.179162 32.979997,15.018911 33.266778,-15.302287 z" fill="url(#b)"/><path d="m 13.231286,30.131206 6.328007,0 28.476029,12.368376 29.914212,-12.656013 4.602187,0 -0.287637,37.968039 -3.45164,2.876366 -61.841881,-0.287636 -3.739277,-4.31455 z" fill="#c4eefb"/><path d="m 13.518923,69.249791 30.777122,11.793103 8.053827,0 28.476029,-10.642556 1.72582,-1.72582 -5.17746,-1.438184 -60.116062,-0.287636 z" fill="#a5e2f5"/><path d="m 15.187499,29.380453 c -1.255428,0.0673 -2.156248,0.98252 -2.156248,2.4375 l 0,34.281248 c 0,1.94 1.563498,4.06723 3.499998,4.78125 l 27,9.96875 c 1.87003,0.68951 4.30244,-0.2215 4.46875,-2.03125 m 4.40625,2.03125 27.0625,-9.96875 c 1.93997,-0.71402 3.5,-2.84125 3.5,-4.78125 l 0,-34.281248 c 0,-1.45493 -0.86782,-2.36855 -2.125,-2.4375" fill="none" stroke="#5f6a6e" stroke-width="3" stroke-linecap="round" stroke-dashoffset="40"/><path stroke-miterlimit="0" d="m 77.824009,26.107953 c -2.07905,-2.50446 -5.36733,-4.125 -9.0625,-4.125 -2.12808,0 -4.10999,0.53757 -5.8125,1.46875 -2.37899,-4.99712 -8.17777,-8.53125 -14.96875,-8.53125 -6.79507,0 -12.59247,3.52936 -14.96875,8.53125 -1.67056,-0.77155 -3.54777,-1.21875 -5.53125,-1.21875 -3.5726,0 -6.79866,1.40021 -9.09375,3.65625" stroke-linejoin="round" stroke-linecap="round" stroke-width="3" stroke="#9eabb0" fill="none"/><path d="m 17.499999,29.911723 0,37.156248 c 9.70228,0.16201 21.56011,0.12053 30.53125,11.78125 8.98902,-11.6805 20.74361,-11.6504 30.46875,-11.8125 l 0,-37.124998 c -9.72514,0.16199 -21.47973,0.13203 -30.46875,11.8125 -8.97295,-11.68047 -20.8235,-11.65051 -30.53125,-11.8125 z" fill="#feffef"/><path d="m 48.517769,77.882741 0,-28.99138" fill="#748186" stroke="#748186" stroke-width="2" stroke-linecap="round" stroke-linejoin="round" stroke-dasharray="8,4" stroke-dashoffset="10.8"/><path d="m 17.499999,29.911723 0,37.156248 c 9.70228,0.16201 21.56011,0.12053 30.53125,11.78125 8.98902,-11.6805 20.74361,-11.6504 30.46875,-11.8125 l 0,-37.124998 c -9.72514,0.16199 -21.47973,0.13203 -30.46875,11.8125 -8.97295,-11.68047 -20.8235,-11.65051 -30.53125,-11.8125 z" fill="none" stroke="#5f6a6e" stroke-width="2.5" stroke-linecap="round" stroke-dashoffset="5.4"/></svg>