<svg xmlns="http://www.w3.org/2000/svg" width="96" height="96"><rect ry="5.228" rx="5.668" y="85.771" x="-5.559" height="26.916" width="12.39" transform="rotate(-45)" fill="#86a6da"/><path d="m 67.822528,75.683967 4.242641,4.24264 c 2.047873,2.047873 5.469497,1.910931 7.689787,-0.309359 l 0.751301,-0.751301 c 2.22029,-2.22029 2.357232,-5.641913 0.309359,-7.689786 l -3.86699,-3.86699 c 1.664014,2.073027 1.396512,5.232614 -0.685011,7.314135 l -0.751301,0.751301 c -2.22029,2.22029 -5.641913,2.357233 -7.689786,0.30936 z" fill="#faf4b7"/><rect width="12.39" height="26.916" x="-5.559" y="85.771" rx="5.668" ry="5.228" transform="rotate(-45)" fill="none" stroke="#5f6a6e" stroke-width="2.5" stroke-linecap="round" stroke-linejoin="round"/><path transform="matrix(1.35132 0 0 1.35132 88.193 -22.494)" d="m -13.016951,48.610168 a 20.949152,20.949152 0 1 1 -41.898304,0 20.949152,20.949152 0 1 1 41.898304,0 z" fill="#faf4b7" stroke="#5f6a6e" stroke-width="2.22" stroke-linecap="round" stroke-linejoin="round"/><path d="m -13.016951,48.610168 a 20.949152,20.949152 0 1 1 -41.898304,0 20.949152,20.949152 0 1 1 41.898304,0 z" transform="translate(78.292 -8.324) scale(1.05982)" fill="#d7f4fb" stroke="#748186" stroke-width="1.962" stroke-linecap="round" stroke-linejoin="round"/><path d="m 57.41008,51.15684 c -4.078749,8.166514 -14.005496,11.480297 -22.172007,7.401548 l 0,0" fill="none" stroke="#afc7ed" stroke-width="2.5" stroke-linecap="round" stroke-linejoin="round" stroke-dasharray="10,2.5"/><path d="m 38.35871,42.987955 a 5.6568552,5.6568552 0 0 1 -11.31371,0 5.6568552,5.6568552 0 1 1 11.31371,0 z" fill="#5f6a6e"/><path d="m 36.656599,42.063013 a 3.1264237,3.0462589 0 0 1 -6.252847,0 3.1264236,3.0462589 0 1 1 6.252847,0 z" fill="#fff"/><path d="m 57.54171,42.581176 a 5.656855,5.656855 0 0 1 -11.31371,0 5.656855,5.656855 0 1 1 11.31371,0 z" fill="#5f6a6e"/><path d="m 55.641333,41.587333 a 3.197147,3.115169 0 0 1 -6.394294,0 3.197147,3.115169 0 1 1 6.394294,0 z" fill="#fff"/><path d="m 27.238833,35.424778 c 4.07875,-8.166515 14.005497,-11.480297 22.172008,-7.401549 l 0,0" fill="none" stroke="#fff" stroke-width="2.5" stroke-linecap="round" stroke-linejoin="round" stroke-dasharray="10,5"/><path d="m 67.24536,62.984157 11.79661,11.35805" fill="#86a6da" stroke="#e5eefb" stroke-width="2" stroke-linecap="round" stroke-linejoin="round" stroke-opacity=".479"/></svg>