<svg xmlns="http://www.w3.org/2000/svg" width="192" height="192" class="active" style=""><path d="m 110.9531,111.66704 a 4.8095083,4.8095083 0 0 1 -9.61901,0 4.8095083,4.8095083 0 1 1 9.61901,0 z" fill="none" stroke="#9eabb0" stroke-width="1.64" stroke-linecap="round" stroke-linejoin="round" class="ViBgiFlm_0"/><path d="m 68.22156,118.71474 -29,0 c -6e-5,0.021 0,0.0415 0,0.0625 0,7.82136 4.06798,15.03328 10.9375,20.9375 m 94.28126,0.53125 c 7.242,-5.9965 11.53125,-13.41708 11.53125,-21.46875 0,-0.021 6e-5,-0.0415 0,-0.0625 l -34,0 -6.25859,5.47225 -40.835427,0 -6.655993,-5.47225" fill="none" stroke="#9eabb0" stroke-width="4" stroke-linecap="round" stroke-linejoin="round" class="ViBgiFlm_1"/><path d="m 130.44032,112.52724 -5.71875,-18.781255 c -0.14445,-0.47207 -1.0486,-0.84375 -2.03125,-0.84375 l -6.4375,0 -31.781257,0 -3.1755,6.6875 c -0.18564,0.521215 -1.14375,0.937495 -2.125,0.937495 l -10.993503,0 -7.79975,17.75001" fill="none" stroke="#9eabb0" stroke-width="4" stroke-linecap="round" stroke-linejoin="round" class="ViBgiFlm_2"/><path d="m 113.84869,91.404835 -1.67921,-9.53152 c -0.0342,-0.19534 -0.24965,-0.35346 -0.48296,-0.35346 l -1.53059,0 -9.09446,0 -1.530595,0 c -0.2333,0 -0.44866,0.15812 -0.48296,0.35346 l -1.6792,9.53152" fill="none" stroke="#9eabb0" stroke-width="4" stroke-linecap="round" stroke-linejoin="round" class="ViBgiFlm_3"/><path d="M154.62782 150.21475C142.457154869 148.223927856 136.445330705 145.226368956 132.401060097 141.910579514M127.81532 137.37095M126.324554453 137.76085923C119.260947066 139.641734079 112.135113702 142.073252578 104.654020879 147.688896121M102.03407 149.77725M97.490328374 148.797025889C85.5680671825 145.858410553 81.5565455732 141.622407343 77.721563 137.37095C77.4873010225 137.431255029 77.2530006247 137.491951373 77.0186506624 137.553135997M69.3545981393 139.842478423C63.9436992626 141.744405502 58.4437072559 144.451310373 52.72156 149.12095C50.9125026367 148.610740743 49.3923738405 148.169011294 48.066969989 147.745851789M40.7985424538 144.469751532C39.8102866938 143.824718152 38.7946324959 143.06946064 37.63822 142.14392" stroke-linejoin="round" stroke="#9eabb0" stroke-linecap="round" stroke-width="4" fill="none" class="ViBgiFlm_4"/><path d="M123.49115 99.958165C123.49115 99.958165 115.921176305 99.958165 107.491356354 99.958165M105.49107075 99.958165C99.5677304454 99.958165 93.4838275711 99.958165 89.4913833043 99.958165M87.4915342294 99.958165C85.8983001148 99.958165 84.953825 99.958165 84.953825 99.958165" stroke-linejoin="round" stroke="#9eabb0" stroke-linecap="round" stroke-width="2" fill="#9eabb0" class="ViBgiFlm_5"/><path d="M113.67169 111.66714C113.669819463 114.85003512 111.692848665 117.570620701 108.900266369 118.670089194M107.458397938 119.076387359C107.031448992 119.151591132 106.592099286 119.190814156 106.143593 119.190814156C103.431485851 119.190814156 101.054197546 117.756587836 99.7290595202 115.605045191M99.0744796146 114.25706737C98.7780620193 113.449622092 98.616030876 112.577281672 98.615496 111.66714C98.6142182124 109.492864539 99.5507517613 107.451615502 101.139740621 106.038091525M102.352108119 105.159108362C102.360815077 105.154032567 102.369534641 105.148972753 102.378266782 105.143928968C104.708117502 103.798180418 107.579068498 103.798180418 109.908919218 105.143928968C110.224040629 105.325946716 110.522782858 105.528839865 110.803807979 105.750288959M111.881714546 106.789529885C113.020832474 108.131156882 113.672756238 109.852835861 113.67169 111.66714C113.67169 111.66714 113.67169 111.66714 113.67169 111.66714" stroke-linejoin="round" stroke="#9eabb0" stroke-linecap="round" stroke-width="1.5" fill="none" class="ViBgiFlm_6"/><path d="M113.47601 76.357465C113.47601 76.357465 113.12245 71.938045 117.3651 68.048955C117.960167549 67.5034773486 118.454383293 66.8015055246 118.836528557 65.9879143978M119.694279998 60.1208345716C119.594381972 59.1520733095 119.386370933 58.1657930518 119.06216427 57.194324365M115.971103751 52.1107422695C114.605776635 50.7178370698 112.845331342 49.5514372757 110.64758 48.780295C108.545487052 48.0427192224 106.743443993 47.5436445216 105.207745429 47.2156600166M99.251616948 46.7201964386C97.9246904943 46.8621382728 97.389325 47.189305 97.389325 47.189305" stroke-linejoin="round" stroke="#9eabb0" stroke-linecap="round" stroke-width="3" fill="none" class="ViBgiFlm_7"/><path d="M112.41535 48.780295C112.41535 48.780295 113.051077161 44.6191646316 111.976337038 39.8327183743M108.12641299 31.7970317097C107.427765859 30.979980302 106.623341409 30.2104906406 105.69783 29.511635C104.06100613 28.2756650879 102.35474665 27.5068048984 100.637498985 27.0654966522M91.7084775483 27.0324300272C87.976820495 27.7020892535 84.7685130945 28.820463423 82.8656735133 28.5200506678M82.540083 28.450975" stroke-linejoin="round" stroke="#9eabb0" stroke-linecap="round" stroke-width="3" fill="none" class="ViBgiFlm_8"/><path d="M87.313055 21.203125C87.313055 21.203125 82.7744209421 22.4297841663 77.37569399 17.9347583995M74.054803 14.485615M69.4734794438 10.6790749082C66.2042276863 9.00055073296 62.4665147611 8.77852728847 58.9504619669 9.59069139064M49.6627878693 14.8058785865C49.5414073239 14.9332404487 49.4224666656 15.0622084489 49.30606 15.192725C45.3566810962 19.6208119849 42.9467281868 20.6459652584 40.9791535499 20.7913846516M38.34591 20.672795" stroke-linejoin="round" stroke="#9eabb0" stroke-linecap="round" stroke-width="2.7" fill="none" class="ViBgiFlm_9"/><path d="M98.449985 73.175475C98.3700608179 71.1769018359 98.0294754398 66.7895129866 92.2800319545 63.5849260165M89.257595 62.215325M86.6995086137 61.4263095348C85.7193973713 61.1784218472 84.7348980468 60.988565944 83.7560241155 60.8503918228M77.7705160635 60.6040454325C73.2063285806 60.8568842398 69.3093298176 62.0723218568 67.33728 63.452755C67.0541605859 63.65093875 66.7506367698 63.8389202028 66.4295225705 64.0169716939M60.7735509188 65.9510364483C59.7945709239 66.1516478397 58.7955029543 66.3068503407 57.8105153751 66.4199507021M52.66481 66.634745M51.8228146189 66.5656803645C48.8262774948 66.2089291535 44.3146291916 64.6197620961 40.6373535251 62.4247079145M35.9806567903 58.6847529057C35.8810252345 58.5658064722 35.7854854433 58.4462816074 35.69425 58.326235C35.2165943115 57.6977408228 34.6209579569 57.0835473997 33.9383552985 56.4973823952M28.859286767 53.3405900759C25.2543475561 51.7102368562 21.2914069597 50.9660452216 18.90046 51.962275" stroke-linejoin="round" stroke="#9eabb0" stroke-linecap="round" stroke-width="3" fill="none" class="ViBgiFlm_10"/><path d="M67.86761 39.764685C67.86761 39.764685 63.2352049475 40.5016608321 58.6015892146 37.9131541971M54.60936 34.638165M51.3376151317 31.6970019129C48.9679649535 29.9975504199 45.9556172612 28.5407459356 42.625618522 27.8203313374M33.1201920692 28.0189269156C30.3171957431 28.7897726546 27.4989344934 30.2608584767 24.8140313738 32.657941563M21.90567 35.698825M18.271286433 39.6712161466C15.0861546258 42.7595077405 12.4329895699 44.259362183 10.3218832682 44.8973897093M4.228 44.184105" stroke-linejoin="round" stroke="#9eabb0" stroke-linecap="round" stroke-width="2.4" fill="none" class="ViBgiFlm_11"/><style data-made-with="vivus-instant">.ViBgiFlm_0{stroke-dasharray:31 33;stroke-dashoffset:32;}.active .ViBgiFlm_0{animation:ViBgiFlm_draw 157ms linear 0ms forwards;}.ViBgiFlm_1{stroke-dasharray:171 173;stroke-dashoffset:172;}.active .ViBgiFlm_1{animation:ViBgiFlm_draw 847ms linear 157ms forwards;}.ViBgiFlm_2{stroke-dasharray:101 103;stroke-dashoffset:102;}.active .ViBgiFlm_2{animation:ViBgiFlm_draw 502ms linear 1005ms forwards;}.ViBgiFlm_3{stroke-dasharray:33 35;stroke-dashoffset:34;}.active .ViBgiFlm_3{animation:ViBgiFlm_draw 167ms linear 1508ms forwards;}.ViBgiFlm_4{stroke-dasharray:100 102;stroke-dashoffset:101;}.active .ViBgiFlm_4{animation:ViBgiFlm_draw 497ms linear 1676ms forwards;}.ViBgiFlm_5{stroke-dasharray:35 37;stroke-dashoffset:36;}.active .ViBgiFlm_5{animation:ViBgiFlm_draw 177ms linear 2173ms forwards;}.ViBgiFlm_6{stroke-dasharray:42 44;stroke-dashoffset:43;}.active .ViBgiFlm_6{animation:ViBgiFlm_draw 211ms linear 2351ms forwards;}.ViBgiFlm_7{stroke-dasharray:29 31;stroke-dashoffset:30;}.active .ViBgiFlm_7{animation:ViBgiFlm_draw 147ms linear 2563ms forwards;}.ViBgiFlm_8{stroke-dasharray:28 30;stroke-dashoffset:29;}.active .ViBgiFlm_8{animation:ViBgiFlm_draw 142ms linear 2711ms forwards;}.ViBgiFlm_9{stroke-dasharray:33 35;stroke-dashoffset:34;}.active .ViBgiFlm_9{animation:ViBgiFlm_draw 167ms linear 2854ms forwards;}.ViBgiFlm_10{stroke-dasharray:56 58;stroke-dashoffset:57;}.active .ViBgiFlm_10{animation:ViBgiFlm_draw 280ms linear 3021ms forwards;}.ViBgiFlm_11{stroke-dasharray:39 41;stroke-dashoffset:40;}.active .ViBgiFlm_11{animation:ViBgiFlm_draw 197ms linear 3302ms forwards;}@keyframes ViBgiFlm_draw{100%{stroke-dashoffset:0;}}@keyframes ViBgiFlm_fade{0%{stroke-opacity:1;}94.8051948051948%{stroke-opacity:1;}100%{stroke-opacity:0;}}</style></svg>