<svg xmlns="http://www.w3.org/2000/svg" fill="#e8e8e8" viewBox="0 0 320 128"><path d="m51.223,77.488c-2.048,0-4.096-0.368-6.144-1.104-2.016-0.768-3.824-1.904-5.424-3.408l4.032-4.848c1.12,0.96001,2.352,1.744,3.696,2.352,1.376,0.60801,2.72,0.91201,4.032,0.912,1.472,0.000006,2.56-0.27199,3.264-0.816,0.73598-0.54399,1.104-1.28,1.104-2.208-0.000018-0.47999-0.11202-0.89599-0.336-1.248-0.19202-0.35199-0.49602-0.65599-0.912-0.912-0.38402-0.28799-0.86402-0.54399-1.44-0.768-0.54401-0.25599-1.152-0.52799-1.824-0.816l-4.08-1.728c-0.80001-0.31998-1.584-0.73598-2.352-1.248-0.73601-0.51198-1.408-1.104-2.016-1.776-0.576-0.70398-1.04-1.504-1.392-2.4-0.352-0.92798-0.528-1.968-0.528-3.12-0.000003-1.28,0.272-2.48,0.816-3.6,0.544-1.152,1.312-2.144,2.304-2.976,0.99199-0.86397,2.16-1.536,3.504-2.016,1.376-0.47997,2.88-0.71997,4.512-0.72,1.824,0.000032,3.616,0.35203,5.376,1.056,1.792,0.70403,3.36,1.728,4.704,3.072l-3.6,4.464c-1.024-0.79998-2.048-1.408-3.072-1.824-1.024-0.44797-2.16-0.67197-3.408-0.672-1.216,0.000026-2.192,0.25603-2.928,0.768-0.70401,0.48002-1.056,1.168-1.056,2.064-0.00001,0.48002,0.11199,0.89602,0.336,1.248,0.25599,0.32002,0.59199,0.62402,1.008,0.912,0.44799,0.25602,0.95999,0.51202,1.536,0.768,0.57599,0.22402,1.2,0.48002,1.872,0.768l4.032,1.632c1.92,0.76802,3.424,1.824,4.512,3.168,1.12,1.344,1.68,3.12,1.68,5.328-0.000025,1.312-0.27202,2.56-0.816,3.744-0.51202,1.152-1.28,2.176-2.304,3.072-0.99202,0.864-2.224,1.568-3.696,2.112-1.472,0.512-3.136,0.768-4.992,0.768"/><path d="m67.813,85.744,0-32.64,5.76,0,0.48,2.352,0.192,0c0.92799-0.83198,1.968-1.52,3.12-2.064,1.184-0.57598,2.4-0.86398,3.648-0.864,1.44,0.000025,2.736,0.28802,3.888,0.864,1.152,0.57602,2.128,1.392,2.928,2.448,0.79998,1.056,1.408,2.336,1.824,3.84,0.44798,1.472,0.67198,3.12,0.672,4.944-0.00002,2.048-0.28802,3.872-0.864,5.472-0.54402,1.568-1.296,2.912-2.256,4.032-0.92802,1.088-2,1.92-3.216,2.496-1.184,0.576-2.416,0.864-3.696,0.864-1.024,0-2.016-0.208-2.976-0.624-0.96001-0.448-1.856-1.072-2.688-1.872l0.24,3.792v6.96h-7.056m10.848-14.016c1.216,0.000005,2.256-0.54399,3.12-1.632,0.86398-1.12,1.296-2.912,1.296-5.376-0.000018-4.288-1.376-6.432-4.128-6.432-1.376,0.000019-2.736,0.72002-4.08,2.16v9.744c0.63999,0.57601,1.28,0.97601,1.92,1.2,0.63999,0.22401,1.264,0.336,1.872,0.336"/><path d="m105.65,77.488c-1.664,0-3.216-0.272-4.656-0.816-1.408-0.576-2.64-1.392-3.696-2.448s-1.888-2.352-2.496-3.888c-0.608-1.568-0.912-3.344-0.912-5.328s0.336-3.744,1.008-5.28c0.672-1.568,1.568-2.88,2.688-3.936,1.152-1.056,2.48-1.856,3.984-2.4,1.504-0.57598,3.072-0.86398,4.704-0.864,1.472,0.000025,2.768,0.24002,3.888,0.72,1.152,0.48002,2.176,1.088,3.072,1.824l-3.312,4.56c-1.12-0.92798-2.192-1.392-3.216-1.392-1.728,0.000019-3.088,0.60802-4.08,1.824-0.99201,1.216-1.488,2.864-1.488,4.944-0.00001,2.08,0.49599,3.728,1.488,4.944,1.024,1.216,2.304,1.824,3.84,1.824,0.76799,0.000005,1.504-0.15999,2.208-0.48,0.73598-0.35199,1.424-0.76799,2.064-1.248l2.784,4.608c-1.184,1.024-2.464,1.76-3.84,2.208-1.376,0.416-2.72,0.624-4.032,0.624"/><path d="m117.69,76.912,0-33.648,6.864,0,0,19.296,0.192,0,7.536-9.456,7.68,0-8.352,9.792,8.976,14.016-7.632,0-5.376-9.264-3.024,3.408,0,5.856-6.864,0"/><path d="m154.17,76.912,0-31.296,19.584,0,0,5.952-12.528,0,0,6.288,10.656,0,0,5.904-10.656,0,0,7.2,13.008,0,0,5.952-20.064,0"/><path d="m187.97,77.488c-1.472,0-2.816-0.288-4.032-0.864-1.184-0.576-2.208-1.392-3.072-2.448-0.832-1.088-1.488-2.4-1.968-3.936-0.448-1.536-0.672-3.28-0.672-5.232s0.272-3.696,0.816-5.232c0.576-1.536,1.312-2.832,2.208-3.888,0.928-1.088,1.984-1.92,3.168-2.496,1.216-0.57598,2.448-0.86398,3.696-0.864,1.344,0.000025,2.448,0.22402,3.312,0.672,0.86399,0.44802,1.712,1.056,2.544,1.824l-0.288-3.648v-8.112h7.056v33.648h-5.76l-0.48-2.352h-0.192c-0.83202,0.832-1.808,1.536-2.928,2.112-1.12,0.544-2.256,0.816-3.408,0.816m1.824-5.76c0.76799,0.000005,1.456-0.15999,2.064-0.48,0.63999-0.31999,1.248-0.87999,1.824-1.68v-9.744c-0.64002-0.57598-1.296-0.97598-1.968-1.2-0.67201-0.22398-1.328-0.33598-1.968-0.336-1.12,0.000019-2.112,0.54402-2.976,1.632-0.86401,1.056-1.296,2.72-1.296,4.992-0.00001,2.368,0.36799,4.096,1.104,5.184,0.76799,1.088,1.84,1.632,3.216,1.632"/><path d="m206.94,76.912,0-23.808,7.056,0,0,23.808-7.056,0m3.504-27.312c-1.184,0.000028-2.16-0.33597-2.928-1.008-0.768-0.70397-1.152-1.6-1.152-2.688s0.384-1.968,1.152-2.64c0.768-0.67196,1.744-1.008,2.928-1.008,1.216,0.000035,2.192,0.33604,2.928,1.008,0.76799,0.67203,1.152,1.552,1.152,2.64-0.00001,1.088-0.38401,1.984-1.152,2.688-0.73601,0.67203-1.712,1.008-2.928,1.008"/><path d="m229.33,77.488c-1.472,0-2.736-0.224-3.792-0.672-1.024-0.448-1.872-1.072-2.544-1.872-0.64-0.8-1.12-1.76-1.44-2.88-0.288-1.152-0.432-2.416-0.432-3.792v-9.648h-3.264v-5.232l3.648-0.288,0.816-6.336h5.856v6.336h5.712v5.52h-5.712v9.552c-0.00001,1.344,0.27199,2.32,0.816,2.928,0.57599,0.57601,1.328,0.864,2.256,0.864,0.38399,0.000005,0.76799-0.04799,1.152-0.144,0.41599-0.09599,0.78399-0.20799,1.104-0.336l1.104,5.136c-0.64002,0.192-1.392,0.384-2.256,0.576-0.86401,0.192-1.872,0.288-3.024,0.288"/><path d="m247.91,77.488c-1.504,0-2.96-0.272-4.368-0.816-1.408-0.576-2.656-1.392-3.744-2.448-1.056-1.056-1.904-2.352-2.544-3.888-0.64-1.568-0.96-3.344-0.96-5.328s0.32-3.744,0.96-5.28c0.64-1.568,1.488-2.88,2.544-3.936,1.088-1.056,2.336-1.856,3.744-2.4,1.408-0.57598,2.864-0.86398,4.368-0.864,1.504,0.000025,2.944,0.28802,4.32,0.864,1.408,0.54402,2.64,1.344,3.696,2.4,1.088,1.056,1.952,2.368,2.592,3.936,0.63998,1.536,0.95998,3.296,0.96,5.28-0.00002,1.984-0.32002,3.76-0.96,5.328-0.64002,1.536-1.504,2.832-2.592,3.888-1.056,1.056-2.288,1.872-3.696,2.448-1.376,0.544-2.816,0.816-4.32,0.816m0-5.712c1.44,0.000005,2.528-0.60799,3.264-1.824,0.73598-1.216,1.104-2.864,1.104-4.944-0.00002-2.08-0.36802-3.728-1.104-4.944-0.73601-1.216-1.824-1.824-3.264-1.824-1.472,0.000019-2.576,0.60802-3.312,1.824-0.70401,1.216-1.056,2.864-1.056,4.944-0.00001,2.08,0.35199,3.728,1.056,4.944,0.73599,1.216,1.84,1.824,3.312,1.824"/><path d="m264.31,76.912,0-23.808,5.76,0,0.48,4.176,0.192,0c0.86399-1.632,1.904-2.832,3.12-3.6,1.216-0.76798,2.432-1.152,3.648-1.152,0.67198,0.000025,1.216,0.04803,1.632,0.144,0.44798,0.06402,0.84798,0.17602,1.2,0.336l-1.152,6.096c-0.44802-0.12798-0.86402-0.22398-1.248-0.288-0.38402-0.06398-0.83201-0.09598-1.344-0.096-0.89601,0.000018-1.84,0.32002-2.832,0.96-0.96001,0.64002-1.76,1.776-2.4,3.408v13.824h-7.056"/><g fill="#f2f394" font-family="Lato" font-size="20px" font-weight="700" letter-spacing="0" style="line-height:125%;-inkscape-font-specification:Source Sans Pro Semi-Bold" word-spacing="0"><path d="m 136.60501,106.598 0,-14.33 4.57,0 c 0.87999,1.4e-5 1.63665,0.08668 2.27,0.26 0.63999,0.173347 1.16332,0.420013 1.57,0.74 0.41332,0.320013 0.71665,0.713346 0.91,1.18 0.19998,0.460011 0.29998,0.980011 0.3,1.56 -2e-5,0.353343 -0.0567,0.693343 -0.17,1.02 -0.10668,0.326675 -0.27335,0.630009 -0.5,0.91 -0.22001,0.280008 -0.50001,0.530008 -0.84,0.75 -0.33335,0.220007 -0.72668,0.400007 -1.18,0.54 1.04665,0.206673 1.83665,0.58334 2.37,1.13 0.53332,0.54667 0.79998,1.26667 0.8,2.16 -2e-5,0.60667 -0.11335,1.16 -0.34,1.66 -0.22002,0.5 -0.54668,0.93 -0.98,1.29 -0.42668,0.36 -0.95335,0.64 -1.58,0.84 -0.62001,0.19333 -1.33001,0.29 -2.13,0.29 l -5.07,0 m 1.94,-6.53 0,4.99 3.1,0 c 0.55332,0 1.02665,-0.0633 1.42,-0.19 0.39999,-0.12667 0.72665,-0.30333 0.98,-0.53 0.25999,-0.23333 0.44999,-0.50666 0.57,-0.82 0.11999,-0.32 0.17999,-0.67 0.18,-1.05 -1e-5,-0.74 -0.26335,-1.32333 -0.79,-1.75 -0.52001,-0.43333 -1.31001,-0.64999 -2.37,-0.65 l -3.09,0 m 0,-1.38 2.56,0 c 0.54666,7e-6 1.01999,-0.05999 1.42,-0.18 0.39999,-0.119992 0.72999,-0.286659 0.99,-0.5 0.26665,-0.213325 0.46332,-0.469991 0.59,-0.77 0.12665,-0.306657 0.18999,-0.63999 0.19,-1 -1e-5,-0.839989 -0.25335,-1.456655 -0.76,-1.85 -0.50668,-0.393321 -1.29335,-0.589988 -2.36,-0.59 l -2.63,0 0,4.89" style="-inkscape-font-specification:Lato Bold"/><path d="m 158.36469,92.268 0,1.58 -6.88,0 0,4.76 5.57,0 0,1.52 -5.57,0 0,4.89 6.88,0 0,1.58 -8.83,0 0,-14.33 8.83,0" style="-inkscape-font-specification:Lato Bold"/><path d="m 170.89626,92.268 0,1.63 -4.63,0 0,12.7 -1.94,0 0,-12.7 -4.65,0 0,-1.63 11.22,0" style="-inkscape-font-specification:Lato Bold"/><path d="m 183.39501,106.598 -1.5,0 c -0.17335,0 -0.31335,-0.0433 -0.42,-0.13 -0.10668,-0.0867 -0.18668,-0.19667 -0.24,-0.33 l -1.34,-3.46 -6.43,0 -1.34,3.46 c -0.0467,0.12 -0.12667,0.22667 -0.24,0.32 -0.11334,0.0933 -0.25334,0.14 -0.42,0.14 l -1.5,0 5.73,-14.33 1.97,0 5.73,14.33 m -9.39,-5.32 5.35,0 -2.25,-5.83 c -0.14668,-0.359989 -0.29001,-0.809988 -0.43,-1.35 -0.0733,0.273345 -0.14668,0.526678 -0.22,0.76 -0.0667,0.226678 -0.13334,0.426678 -0.2,0.6 l -2.25,5.82" style="-inkscape-font-specification:Lato Bold"/></g></svg>