<svg xmlns="http://www.w3.org/2000/svg" xmlns:xlink="http://www.w3.org/1999/xlink" viewBox="0 0 96 96"><defs><linearGradient id="b"><stop offset="0" stop-color="#13efa1"/><stop offset="1" stop-color="#0cb478"/></linearGradient><linearGradient id="a"><stop offset="0" stop-color="#51a7ff"/><stop offset="1" stop-color="#0072e7"/></linearGradient><linearGradient id="c" x1="31.25" x2="79.75" y1="99.125" y2="90.5" gradientTransform="translate(-16 -32)" gradientUnits="userSpaceOnUse" xlink:href="#a"/><linearGradient id="d" x1="64" x2="48" y1="42.125" y2="70.75" gradientTransform="translate(-16 -32)" gradientUnits="userSpaceOnUse" xlink:href="#b"/><linearGradient id="e" x1="31.354" x2="79.823" y1="80.177" y2="90.076" gradientTransform="translate(-16 -32)" gradientUnits="userSpaceOnUse" xlink:href="#b"/><linearGradient id="f" x1="96.79" x2="48.386" y1="80" y2="71.338" gradientTransform="translate(-16 -32)" gradientUnits="userSpaceOnUse" xlink:href="#a"/></defs><path fill="url(#c)" d="M48 28L16 47l16 10-17 10 33 19 33-19V48l-15.656-9.031z"/><path fill="url(#d)" d="M48 10L15 29v19l17 10 16 9 16-9-32-19 16-10 16.283 9.35L81 29z"/><path fill="url(#e)" d="M15 29v19l33 19 16-9-32-19z"/><path fill="url(#f)" d="M48 29L32 39l32 19 17 9V48z"/></svg>