<svg xmlns="http://www.w3.org/2000/svg" viewBox="0 0 96 96">
  <path stroke-linejoin="round" d="m66.76,976.58c-1.0843,4.3618-3.0613,8.5476-5.3189,11.483l3.1227,2.2839c2.765-4.9806,3.0581-10.56,2.1962-13.767z" stroke="#6c4a77" stroke-linecap="round" stroke-miterlimit="3.3" stroke-width="1.6" fill="#5ed5b7" transform="translate(0,-956.36218)"/>
  <path stroke-linejoin="round" d="m38.159,973.67c-4.8575,7.0233-2.9525,14.218-1.3048,19.305l4.3158-2.925c-4.2422-2.9132-4.3593-9.3628-3.011-16.38z" stroke="#6c4a77" stroke-linecap="round" stroke-miterlimit="3.3" stroke-width="1.6" fill="#db83c9" transform="translate(0,-956.36218)"/>
  <path stroke-linejoin="round" d="m29.353,976.46c-0.7152,4.6926-1.2015,11.965,6.1224,16.38l2.8103-2.8275c-7.4546-4.1154-7.7608-7.1234-8.9326-13.552z" stroke="#6b4a76" stroke-linecap="round" stroke-miterlimit="3.3" stroke-width="2" fill="#71f1d0" transform="translate(0,-956.36218)"/>
  <path stroke-linejoin="round" d="m17.409,1001.6c2.7225,1.0506,5.6825,2.4656,7.126,5.7525l-0.3011-4.485c-2.4582-2.1434-5.7131-2.0324-6.8249-1.2675z" stroke="#6c4a77" stroke-linecap="round" stroke-miterlimit="3.3" stroke-width="1.6" fill="#5ed5b7" transform="translate(0,-956.36218)"/>
  <path stroke-linejoin="round" d="m17.309,996.45s3.8139,0.77999,5.8213,7.4099c2.0073,6.6299,5.1187,7.3125,5.1187,7.3125l0.70257-6.825s-1.907,0.2925-3.5128-2.8275c-1.6059-3.1199-3.8139-4.7774-8.1297-5.0699z" stroke="#6c4a77" stroke-linecap="round" stroke-miterlimit="3.3" stroke-width="2" fill="#f7a8e7" transform="translate(0,-956.36218)"/>
  <path stroke-linejoin="round" d="m66.325,1026.5c1.7267,3.7784-0.77908,5.3253,0.10037,6.1425,2.3477-1.2876,5.8095-4.0549,4.8176-10.725z" stroke="#6c4a77" stroke-linecap="round" stroke-miterlimit="3.3" stroke-width="1.6" fill="#5ed5b7" transform="translate(0,-956.36218)"/>
  <path stroke-linejoin="round" d="m32.825,1024.7c0.07932,2.9347,1.1726,5.6421,4.7172,7.7999,1.123-0.056,1.0514-1.147,1.104-5.3623z" stroke="#6c4a77" stroke-linecap="round" stroke-miterlimit="3.3" stroke-width="1.6" fill="#db83c9" transform="translate(0,-956.36218)"/>
  <path stroke-linejoin="round" d="m30.688,1022.8c-2.5518,6.6488,1.239,11.343,3.0061,11.893-0.0018-2.7136-1.2321-6.6826,1.5388-9.3161-0.71886-1.6687-1.0784-4.8613-4.5449-2.5767z" stroke="#6c4a77" stroke-linecap="round" stroke-miterlimit="3.3" stroke-width="2" fill="#71f1d0" transform="translate(0,-956.36218)"/>
  <path fill="#93d0f9" d="m46.817,986.31c8.3304-1.2675,13.578,0.36002,18.668,4.7775,11.211,11.06,11.708,32.689-1.5055,37.927-11.255,4.4329-30.75,3.2923-35.028-9.3599-4.2785-12.652,3.6482-30.597,17.865-33.345z" transform="translate(0,-956.36218)"/>
  <path fill="#7bbcf8" d="m68.269,994.37c0.03361,0.2976,0.11419,0.62696,0.2235,1.0182,1.8873,6.7547-0.894,21.754-7.2513,27.217-6.3573,5.4633-18.873,4.172-25.529-0.6953-6.6553-4.8674-7.2513-13.708-7.2513-13.708-1.1364,3.354-0.48665,8.439,0.49667,11.448,4.2785,12.652,23.76,13.795,35.015,9.3622,12.004-4.7586,12.677-23.043,4.2962-34.642z" transform="translate(0,-956.36218)"/>
  <path stroke-linejoin="round" d="m46.817,986.31c8.3304-1.2675,13.578,0.36002,18.668,4.7775,11.211,11.06,11.708,32.689-1.5055,37.927-11.255,4.4329-30.75,3.2923-35.028-9.3599-4.2785-12.652,3.6482-30.597,17.865-33.345z" stroke="#6c4a77" stroke-linecap="round" stroke-miterlimit="3.3" stroke-width="2.2" fill="none" transform="translate(0,-956.36218)"/>
  <path stroke-linejoin="round" d="m65.227,971.72c-5.0525,2.7863-10.073,8.2236-8.8857,16.767,0,0,0.64674,2.0947,2.126,2.0255,2.0832-0.0975,2.3793-1.7561,2.3793-1.7561-2.0165-8.8624,1.7457-12.862,4.3804-17.036z" stroke="#6c4a77" stroke-linecap="round" stroke-miterlimit="3.3" stroke-width="2" fill="#f7a8e7" transform="translate(0,-956.36218)"/>
  <path stroke-linejoin="round" d="m78.89,994.7c-1.1727,2.3716-1.7107,5.0878-4.2974,6.6915l-0.48091,3.9319c3.8141-2.5438,4.8254-6.3457,4.7783-10.623z" stroke="#6b4a76" stroke-linecap="round" stroke-miterlimit="3.3" stroke-width="1.6" fill="#db83c9" transform="translate(0,-956.36218)"/>
  <path stroke-linejoin="round" d="m58.719,1029.5c2.9613,1.9661,4.3533,4.3427,2.8928,7.4655,0,0,3.2208-0.1652,4.6419-4.4066s-0.4585-6.0409-0.4585-6.0409-2.258-1.3887-4.7663-0.01c-1.6918,0.9314-2.3099,2.9896-2.3099,2.9896z" stroke="#6c4a77" stroke-linecap="round" stroke-miterlimit="3.3" stroke-width="2" fill="#f7a8e7" transform="translate(0,-956.36218)"/>
  <path d="m30.431,41.389c0,3.7309-2.7418,6.7554-6.124,6.7554s-6.124-3.0245-6.124-6.7554,2.7418-6.7554,6.124-6.7554,6.124,3.0245,6.124,6.7554z" transform="translate(0,-956.36218) matrix(0.8343041,0,0,0.77080459,18.006091,973.2694)" fill="#FFF"/>
  <path d="m53.033,40.315c0,3.8355-3.1376,6.9448-7.0079,6.9448-3.8704,0-7.0079-3.1093-7.0079-6.9448s3.1376-6.9448,7.0079-6.9448c3.8704,0,7.0079,3.1093,7.0079,6.9448z" transform="translate(0,-956.36218) matrix(0.84187932,0,0,0.81122165,16.600139,972.41852)" fill="#FFF"/>
  <path stroke-linejoin="round" d="m76.629,989.15s-5.2235,2.8662-4.2664,9.6081c0.77133,5.4325-4.9412,7.973-4.9412,7.973-1.2942,1.3461-0.28324,6.7229,3.3021,4.7663,0,0,2.8539-1.9013,4.4591-6.103,1.0009-2.6198,0.53312-4.7452-0.08054-7.1542-0.72852-2.86-1.0087-4.3689,1.5269-9.0902z" stroke="#6c4a77" stroke-linecap="round" stroke-miterlimit="3.3" stroke-width="2" fill="#71f1d0" transform="translate(0,-956.36218)"/>
  <path fill="#edd4f7" d="m59.205,1000.9c0.06248,0.3814,0.0745,0.7614,0.0745,1.1672,0,3.1114-1.9354,5.6372-4.321,5.6372s-4.321-2.5258-4.321-5.6372c0-0.1017,0.02076-0.1977,0.02483-0.298-0.75646,0.9471-1.2168,2.119-1.2168,3.4022,0,3.1114,2.6519,5.6371,5.9103,5.6371s5.8855-2.5257,5.8855-5.6371c0-1.7062-0.78173-3.2383-2.0363-4.2714z" transform="translate(0,-956.36218)"/>
  <path stroke-linejoin="round" d="m53.033,40.315c0,3.8355-3.1376,6.9448-7.0079,6.9448-3.8704,0-7.0079-3.1093-7.0079-6.9448s3.1376-6.9448,7.0079-6.9448c3.8704,0,7.0079,3.1093,7.0079,6.9448z" transform="translate(0,-956.36218) matrix(0.84187932,0,0,0.81122165,16.600139,972.41852)" stroke="#6c4a77" stroke-linecap="round" stroke-miterlimit="3.3" stroke-width="2.6621" fill="none"/>
  <path fill="#edd4f7" d="m41.151,1000.9c0.30934,0.6168,0.49666,1.3403,0.49666,2.1108,0,2.2746-1.5665,4.1224-3.4767,4.1224s-3.4518-1.8478-3.4518-4.1224c0-0.6715,0.1579-1.3023,0.39733-1.8624-1.1749,0.954-1.937,2.4226-1.937,4.0726,0,2.8758,2.2939,5.1902,5.1157,5.1902s5.0908-2.3144,5.0908-5.1902c0-1.7973-0.8759-3.3852-2.235-4.321z" transform="translate(0,-956.36218)"/>
  <path stroke-linejoin="round" d="m30.431,41.389c0,3.7309-2.7418,6.7554-6.124,6.7554s-6.124-3.0245-6.124-6.7554,2.7418-6.7554,6.124-6.7554,6.124,3.0245,6.124,6.7554z" transform="translate(0,-956.36218) matrix(0.8343041,0,0,0.77080459,18.006091,973.2694)" stroke="#6c4a77" stroke-linecap="round" stroke-miterlimit="3.3" stroke-width="2.494" fill="none"/>
  <path opacity=".7" d="m35.231,1031.1c1.6694,0.7556,3.5415-0.8169,3.441-1.9297-0.10054-1.1128-3.3743-3.1319-4.5967-2.1625-1.2223,0.9693-0.51377,3.3367,1.1557,4.0922z" fill="#648ce6" transform="translate(0,-956.36218) matrix(0.79335027,-0.04567972,0.04567972,0.79335027,-35.305793,209.88166)"/>
  <path opacity=".7" d="m44.053,1035.2c2.3237-0.031,3.7488-2.9478,3.0881-4.2168-0.66072-1.2691-5.4797-1.8474-6.4382-0.012-0.9585,1.8359,1.0264,4.2596,3.3501,4.2283z" fill-opacity=".6438" fill="#536ddc" transform="translate(0,-956.36218) matrix(0.79335027,-0.04567972,0.04567972,0.79335027,-35.305793,209.88166)"/>
  <path opacity=".75" fill="#6990e6" d="m53.08,1034c-1.5394,0.6818-3.1584-0.8392-3.0184-1.8883,0.14005-1.049,3.1828-2.8936,4.2424-1.9548,1.0596,0.9389,0.3154,3.1612-1.224,3.8431z" transform="translate(0,-956.36218) matrix(0.79335027,-0.04567972,0.04567972,0.79335027,-35.305793,209.88166)"/>
  <path opacity=".5" fill="#6189e6" d="m51.341,1029.3c-1.5455,1.1266-4.0683,0.164-4.3236-0.8856-0.25531-1.0498,2.5999-3.7536,4.2284-3.1777,1.6285,0.5757,1.6406,2.9367,0.09516,4.0633z" transform="translate(0,-956.36218) matrix(0.79335027,-0.04567972,0.04567972,0.79335027,-35.305793,209.88166)"/>
  <path opacity=".5" d="m43.306,1026.6c0.39853,1.3972-1.2664,2.5546-2.2218,2.2899-0.95542-0.2649-2.2059-3.096-1.169-3.8614,1.0371-0.7653,2.9923,0.1742,3.3908,1.5715z" fill="#6990e6" transform="translate(0,-956.36218) matrix(0.79335027,-0.04567972,0.04567972,0.79335027,-35.305793,209.88166)"/>
</svg>
