<svg xmlns="http://www.w3.org/2000/svg" viewBox="0 0 96 96">
  <g>
    <path d="m 68.100703,981.57971 c -1.6013,4.19959 -2.787185,6.55646 -7.006642,9.07422 l 3.325171,2.39309 c 3.719248,-3.11166 4.151151,-8.17954 3.681471,-11.46731 z" fill="#5ed5b7" stroke="#6c4a77" stroke-width="1.6" stroke-linecap="round" stroke-linejoin="round" stroke-miterlimit="3.3" transform="translate(0,-956.36218)"/>
    <path d="m 39.707549,972.9043 c -5.620253,6.06822 -4.216023,12.90637 -2.910093,17.76771 l 4.72692,-2.32013 c -4.180923,-3.0822 -3.784288,-9.06821 -1.816827,-15.44758 z" fill="#db83c9" stroke="#6c4a77" stroke-width="1.5771" stroke-linecap="round" stroke-linejoin="round" stroke-miterlimit="3.3" transform="translate(0,-956.36218)"/>
    <path d="m 15.598119,1000.4034 c 2.62953,1.2654 5.466634,2.9131 6.642145,6.3051 l 0.05927,-4.4947 c -2.278509,-2.33363 -5.531879,-2.48381 -6.701419,-1.8104 z" fill="#5ed5b7" stroke="#6c4a77" stroke-width="1.6" stroke-linecap="round" stroke-linejoin="round" stroke-miterlimit="3.3" transform="translate(0,-956.36218)"/>
    <path d="m 16.768798,994.58554 c 0,0 3.64515,1.36652 4.591547,8.22886 0.946414,6.8621 4.787849,8.6477 4.787849,8.6477 l 0.885685,-7.2564 c 0,0 -1.92925,-0.01 -3.027723,-3.3418 -1.098483,-3.33265 -3.02035,-5.3149 -7.237358,-6.27836 z" fill="#f7a8e7" stroke="#6c4a77" stroke-width="2" stroke-linecap="round" stroke-linejoin="round" stroke-miterlimit="3.3" transform="translate(0,-956.36218)"/>
    <path d="m 64.064503,1026.311 c 1.72672,3.7784 -0.779085,5.3253 0.100367,6.1425 2.34774,-1.2876 5.809542,-4.0549 4.817604,-10.7249 z" fill="#5ed5b7" stroke="#6c4a77" stroke-width="1.6" stroke-linecap="round" stroke-linejoin="round" stroke-miterlimit="3.3" transform="translate(0,-956.36218)"/>
    <path d="m 29.9399,1024.759 c 0.07932,2.9347 1.172625,5.6421 4.717237,7.7999 1.122959,-0.056 1.051374,-1.147 1.104035,-5.3623 z" fill="#db83c9" stroke="#6c4a77" stroke-width="1.6" stroke-linecap="round" stroke-linejoin="round" stroke-miterlimit="3.3" transform="translate(0,-956.36218)"/>
    <path d="m 28.531473,1021.9446 c -2.754078,6.6112 1.337155,11.2784 3.24437,11.8255 -0.0019,-2.6983 -1.329734,-6.6448 1.660745,-9.2634 -0.775837,-1.6592 -1.163838,-4.8337 -4.905115,-2.5621 z" fill="#71f1d0" stroke="#6c4a77" stroke-width="2" stroke-linecap="round" stroke-linejoin="round" stroke-miterlimit="3.3" transform="translate(0,-956.36218)"/>
    <path d="m 43.93099,986.40718 c 8.33044,-1.26749 13.57789,0.36002 18.668215,4.77747 11.211483,11.05965 11.707689,32.68915 -1.505501,37.92725 -11.254912,4.4329 -30.749541,3.2923 -35.027996,-9.3599 -4.278454,-12.6524 3.648181,-30.59707 17.865282,-33.34482 z" fill="#93d0f9" transform="translate(0,-956.36218)"/>
    <path d="m 65.38346,994.47589 c 0.03361,0.2976 0.114193,0.62696 0.2235,1.01816 1.887327,6.75475 -0.893998,21.75405 -7.251312,27.21735 -6.357313,5.4633 -18.873275,4.172 -25.528588,-0.6953 -6.655314,-4.8674 -7.251313,-13.708 -7.251313,-13.708 -1.13636,3.354 -0.486646,8.439 0.496666,11.4481 4.278455,12.6522 23.759983,13.7951 35.014894,9.3622 12.003788,-4.7586 12.676663,-23.0426 4.296153,-34.64251 z" fill="#7bbcf8" transform="translate(0,-956.36218)"/>
    <path d="m 43.93099,986.40718 c 8.33044,-1.26749 13.57789,0.36002 18.668215,4.77747 11.211483,11.05965 11.707689,32.68915 -1.505501,37.92725 -11.254912,4.4329 -30.749541,3.2923 -35.027996,-9.3599 -4.278454,-12.6524 3.648181,-30.59707 17.865282,-33.34482 z" fill="none" stroke="#6c4a77" stroke-width="2.2" stroke-linecap="round" stroke-linejoin="round" stroke-miterlimit="3.3" transform="translate(0,-956.36218)"/>
    <path d="m 80.401885,994.77196 c -1.442624,2.31856 -2.293019,5.00895 -5.054864,6.49914 l -0.934339,3.9074 c 4.093185,-2.3762 5.540677,-6.13084 5.989203,-10.40654 z" fill="#db83c9" stroke="#6b4a76" stroke-width="1.6" stroke-linecap="round" stroke-linejoin="round" stroke-miterlimit="3.3" transform="translate(0,-956.36218)"/>
    <path d="m 61.226291,1035.6086 c 0,0 3.220794,-0.1652 4.641878,-4.4066 1.421106,-4.2414 -0.4585,-6.0409 -0.4585,-6.0409 0,0 -1.132968,-1.1387 -3.641346,0.24 -1.691764,0.9314 -2.559857,3.3646 -2.559857,3.3646 2.488909,0.9509 3.203724,4.1308 2.017825,6.8429 z" fill="#f7a8e7" stroke="#6c4a77" stroke-width="2" stroke-linecap="round" stroke-linejoin="round" stroke-miterlimit="3.3" transform="translate(0,-956.36218)"/>
    <path d="m 53.033007,40.315342 a 7.0079331,6.9447989 0 1 1 -14.015866,0 7.0079331,6.9447989 0 1 1 14.015866,0 z" transform="translate(0,-956.36218) matrix(0.84187932,0,0,0.81122165,13.714607,972.51985)" fill="#fff"/>
    <path d="m 79.229548,990.00145 c 0,0 -5.961352,3.41759 -6.745358,10.20975 -0.383522,3.3226 -3.926792,5.1821 -3.926792,5.1821 -1.444845,1.2888 -1.594808,8.4783 2.202502,6.6788 4.043435,-3.4203 5.642798,-7.5628 5.036514,-12.17119 -0.01931,-1.88888 0.361056,-5.29244 3.433134,-9.89946 z" fill="#71f1d0" stroke="#6c4a77" stroke-width="2" stroke-linecap="round" stroke-linejoin="round" stroke-miterlimit="3.3" transform="translate(0,-956.36218)"/>
    <path d="m 56.319322,1000.9574 c 0.06248,0.3814 0.0745,0.7614 0.0745,1.1672 0,3.1114 -1.935418,5.6372 -4.320987,5.6372 -2.38557,0 -4.320987,-2.5258 -4.320987,-5.6372 0,-0.1017 0.02076,-0.1977 0.02483,-0.298 -0.756455,0.9471 -1.21683,2.119 -1.21683,3.4022 0,3.1114 2.651928,5.6371 5.910316,5.6371 3.258388,0 5.885481,-2.5257 5.885481,-5.6371 0,-1.7062 -0.78173,-3.2383 -2.036326,-4.2714 z" fill="#edd4f7" transform="translate(0,-956.36218)"/>
    <path transform="translate(0,-956.36218) matrix(0.84187932,0,0,0.81122165,13.714607,972.51985)" d="m 53.033007,40.315342 a 7.0079331,6.9447989 0 1 1 -14.015866,0 7.0079331,6.9447989 0 1 1 14.015866,0 z" fill="none" stroke="#6c4a77" stroke-width="2.6621" stroke-linecap="round" stroke-linejoin="round" stroke-miterlimit="3.3"/>
    <g>
      <path transform="translate(0,-956.36218) translate(1.043206,-0.53034209) matrix(0.8343041,0,0,0.77080459,14.50413,973.54752)" d="m 30.430845,41.388626 c 0,3.730902 -2.741831,6.755395 -6.12405,6.755395 -3.382219,0 -6.12405,-3.024493 -6.12405,-6.755395 0,-3.730902 2.741831,-6.755395 6.12405,-6.755395 3.382219,0 6.12405,3.024493 6.12405,6.755395 z" fill="#fff"/>
      <path d="m 37.649114,1001.1342 c 0.309336,0.6168 0.496665,1.3403 0.496665,2.1108 0,2.2746 -1.566467,4.1224 -3.476656,4.1224 -1.910188,0 -3.451823,-1.8478 -3.451823,-4.1224 0,-0.6715 0.157899,-1.3023 0.397332,-1.8624 -1.174915,0.954 -1.936994,2.4226 -1.936994,4.0726 0,2.8758 2.293852,5.1902 5.115651,5.1902 2.8218,0 5.090818,-2.3144 5.090818,-5.1902 0,-1.7973 -0.875905,-3.3852 -2.234993,-4.321 z" fill="#edd4f7" transform="translate(0,-956.36218) translate(1.043206,-0.53034209)"/>
      <path d="m 30.430845,41.388626 c 0,3.730902 -2.741831,6.755395 -6.12405,6.755395 -3.382219,0 -6.12405,-3.024493 -6.12405,-6.755395 0,-3.730902 2.741831,-6.755395 6.12405,-6.755395 3.382219,0 6.12405,3.024493 6.12405,6.755395 z" transform="translate(0,-956.36218) translate(1.043206,-0.53034209) matrix(0.8343041,0,0,0.77080459,14.50413,973.54752)" fill="none" stroke="#6c4a77" stroke-width="2.494" stroke-linecap="round" stroke-linejoin="round" stroke-miterlimit="3.3"/>
    </g>
    <g>
      <path d="m 35.231268,1031.1268 c 1.669438,0.7556 3.541535,-0.8169 3.440995,-1.9297 -0.10054,-1.1128 -3.37433,-3.1319 -4.596662,-2.1625 -1.22233,0.9693 -0.513773,3.3367 1.155667,4.0922 z" opacity=".7" fill="#648ce6" transform="translate(0,-956.36218) matrix(0.79335027,-0.04567972,0.04567972,0.79335027,-38.19133,209.98299)"/>
      <path d="m 44.053069,1035.207 c 2.323725,-0.031 3.748832,-2.9478 3.088115,-4.2168 -0.660716,-1.2691 -5.479728,-1.8474 -6.438218,-0.012 -0.958496,1.8359 1.026383,4.2596 3.350103,4.2283 z" opacity=".7" fill="#536ddc" fill-opacity=".6438" transform="translate(0,-956.36218) matrix(0.79335027,-0.04567972,0.04567972,0.79335027,-38.19133,209.98299)"/>
      <path d="m 53.080205,1034.0438 c -1.539446,0.6818 -3.158428,-0.8392 -3.018374,-1.8883 0.140054,-1.049 3.182797,-2.8936 4.242418,-1.9548 1.059593,0.9389 0.315401,3.1612 -1.224044,3.8431 z" opacity=".75" fill="#6990e6" transform="translate(0,-956.36218) matrix(0.79335027,-0.04567972,0.04567972,0.79335027,-38.19133,209.98299)"/>
      <path d="m 51.340741,1029.3207 c -1.54548,1.1266 -4.06834,0.164 -4.323594,-0.8856 -0.255313,-1.0498 2.599862,-3.7536 4.228439,-3.1777 1.628483,0.5757 1.640596,2.9367 0.09516,4.0633 z" opacity=".5" fill="#6189e6" transform="translate(0,-956.36218) matrix(0.79335027,-0.04567972,0.04567972,0.79335027,-38.19133,209.98299)"/>
      <path d="m 43.305544,1026.5887 c 0.398533,1.3972 -1.266431,2.5546 -2.221804,2.2899 -0.955421,-0.2649 -2.205872,-3.096 -1.169013,-3.8614 1.037087,-0.7653 2.992285,0.1742 3.390817,1.5715 z" opacity=".5" fill="#6990e6" transform="translate(0,-956.36218) matrix(0.79335027,-0.04567972,0.04567972,0.79335027,-38.19133,209.98299)"/>
    </g>
    <path d="m 68.305576,976.09807 c -2.804724,3.12422 -6.456878,6.73554 -6.726206,14.07391 0,0 -1.962624,0.64039 -3.306685,0.15918 -1.974553,-0.70694 -1.946509,-2.25755 -1.946509,-2.25755 1.270532,-5.73075 6.834,-11.07088 11.9794,-11.97554 z" fill="#f7a8e7" stroke="#6c4a77" stroke-width="2" stroke-linecap="round" stroke-linejoin="round" stroke-miterlimit="3.3" transform="translate(0,-956.36218)"/>
    <path d="m 31.620477,976.04157 c 0,0 0.897627,8.94443 6.466868,12.22989 0,0 -0.481665,1.2129 -1.55357,1.99817 -1.071905,0.78527 -2.338838,0.92626 -2.338838,0.92626 -5.894729,-5.38519 -2.57446,-15.15432 -2.57446,-15.15432 z" fill="#71f1d0" stroke="#6c4a77" stroke-width="2" stroke-linecap="round" stroke-linejoin="round" stroke-miterlimit="3.3" transform="translate(0,-956.36218)"/>
  </g>
</svg>
