<svg xmlns="http://www.w3.org/2000/svg" width="200" height="64">
  <g style="text-align:start;line-height:125%" font-size="56" font-weight="700" letter-spacing="0" word-spacing="0" fill="#f1caff" font-family="Source Sans Pro">
    <path d="m 14.544188,1035.5101 c -1.829344,0 -3.714675,-0.3546 -5.6560004,-1.064 -1.9040043,-0.7093 -3.565336,-1.6426 -4.984,-2.8 l 3.696,-5.152 c 1.2693272,0.9707 2.4826594,1.6987 3.6400004,2.184 1.157323,0.4854 2.333322,0.728 3.528,0.728 1.231986,0 2.127985,-0.2053 2.688,-0.616 0.559984,-0.4106 0.839984,-0.9893 0.84,-1.736 -1.6e-5,-0.448 -0.168016,-0.84 -0.504,-1.176 -0.298682,-0.3733 -0.728015,-0.7093 -1.288,-1.008 -0.52268,-0.2986 -1.120013,-0.56 -1.792,-0.784 -0.672012,-0.2613 -1.362678,-0.5413 -2.072,-0.84 -0.858676,-0.336 -1.717342,-0.728 -2.576,-1.176 -0.8586736,-0.448 -1.6426728,-0.9893 -2.3520004,-1.624 -0.7093376,-0.672 -1.2880037,-1.4373 -1.736,-2.296 -0.4480028,-0.8959 -0.6720026,-1.9226 -0.672,-3.08 -2.6e-6,-1.2693 0.2426638,-2.4453 0.728,-3.528 0.5226628,-1.0826 1.2506621,-1.9973 2.184,-2.744 0.9333269,-0.7466 2.0533254,-1.3253 3.3600004,-1.736 1.306656,-0.4479 2.762655,-0.6719 4.368,-0.672 2.127984,1e-4 3.994649,0.3734 5.6,1.12 1.605312,0.7094 3.005311,1.5121 4.2,2.408 l -3.696,4.928 c -1.008019,-0.7466 -1.997351,-1.3253 -2.968,-1.736 -0.970682,-0.4106 -1.941348,-0.6159 -2.912,-0.616 -2.090678,10e-5 -3.136011,0.7281 -3.136,2.184 -1.1e-5,0.4481 0.149322,0.8401 0.448,1.176 0.298655,0.2987 0.690655,0.5787 1.176,0.84 0.522654,0.2614 1.10132,0.5227 1.736,0.784 0.671985,0.2241 1.362651,0.4667 2.072,0.728 0.895983,0.3361 1.773315,0.7281 2.632,1.176 0.89598,0.4107 1.698646,0.9334 2.408,1.568 0.746645,0.6347 1.343977,1.4187 1.792,2.352 0.447977,0.896 0.671976,1.9787 0.672,3.248 -2.4e-5,1.2694 -0.24269,2.4454 -0.728,3.528 -0.485356,1.0827 -1.213355,2.0347 -2.184,2.856 -0.970686,0.784 -2.165352,1.4187 -3.584,1.904 -1.418682,0.448 -3.061347,0.672 -4.928,0.672" transform="translate(4.8992112,6.5e-5) translate(0,-988.36218)" fill="#33d9c5"/>
    <path d="m 31.196313,1045.1421 0,-38.08 6.72,0 0.56,2.744 0.224,0 c 1.082654,-0.9706 2.295986,-1.7733 3.64,-2.408 1.381317,-0.6719 2.799982,-1.0079 4.256,-1.008 1.679979,1e-4 3.191977,0.3361 4.536,1.008 1.343975,0.6721 2.48264,1.6241 3.416,2.856 0.933305,1.2321 1.642638,2.7254 2.128,4.48 0.522637,1.7174 0.78397,3.6401 0.784,5.768 -3e-5,2.3894 -0.33603,4.5174 -1.008,6.384 -0.634695,1.8294 -1.512028,3.3974 -2.632,4.704 -1.082692,1.2694 -2.333358,2.24 -3.752,2.912 -1.381355,0.672 -2.818687,1.008 -4.312,1.008 -1.194684,0 -2.352016,-0.2426 -3.472,-0.728 -1.120014,-0.5226 -2.165346,-1.2506 -3.136,-2.184 l 0.28,4.424 0,8.12 -8.232,0 m 12.656,-16.352 c 1.418649,0 2.631981,-0.6346 3.64,-1.904 1.007979,-1.3066 1.511978,-3.3973 1.512,-6.272 -2.2e-5,-5.0026 -1.605354,-7.5039 -4.816,-7.504 -1.605349,10e-5 -3.192014,0.8401 -4.76,2.52 l 0,11.368 c 0.746654,0.672 1.49332,1.1387 2.24,1.4 0.746651,0.2614 1.474651,0.392 2.184,0.392" transform="translate(4.8992112,6.5e-5) translate(0,-988.36218)" fill="#33d9c5"/>
    <path d="m 75.339188,1035.5101 c -1.941348,0 -3.752012,-0.3173 -5.432,-0.952 -1.642676,-0.672 -3.080008,-1.624 -4.312,-2.856 -1.232005,-1.232 -2.202671,-2.744 -2.912,-4.536 -0.709336,-1.8293 -1.064002,-3.9013 -1.064,-6.216 -2e-6,-2.3146 0.391997,-4.3679 1.176,-6.16 0.783996,-1.8293 1.829328,-3.3599 3.136,-4.592 1.343992,-1.2319 2.893324,-2.1653 4.648,-2.8 1.754653,-0.6719 3.583985,-1.0079 5.488,-1.008 1.717315,1e-4 3.229313,0.2801 4.536,0.84 1.343977,0.5601 2.538643,1.2694 3.584,2.128 l -3.864,5.32 c -1.306687,-1.0826 -2.557352,-1.6239 -3.752,-1.624 -2.016015,1e-4 -3.60268,0.7094 -4.76,2.128 -1.157345,1.4187 -1.736011,3.3414 -1.736,5.768 -1.1e-5,2.4267 0.578655,4.3494 1.736,5.768 1.194653,1.4187 2.687985,2.128 4.48,2.128 0.895982,0 1.754648,-0.1866 2.576,-0.56 0.858646,-0.4106 1.661312,-0.896 2.408,-1.456 l 3.248,5.376 c -1.381357,1.1947 -2.874689,2.0534 -4.48,2.576 -1.605353,0.4854 -3.173351,0.728 -4.704,0.728" transform="translate(4.8992112,6.5e-5) translate(0,-988.36218)" fill="#33d9c5"/>
    <path d="m 89.383813,1034.8381 0,-39.25597 8.008,0 0,22.51197 0.224,0 8.791997,-11.032 8.96,0 -9.744,11.424 10.472,16.352 -8.904,0 -6.272,-10.808 -3.527997,3.976 0,6.832 -8.008,0" transform="translate(4.8992112,6.5e-5) translate(0,-988.36218)" fill="#fab86c"/>
  </g>
  <g style="text-align:start;line-height:125%;-inkscape-font-specification:Source Sans Pro Semi-Bold" font-size="36" font-weight="600" letter-spacing="-1.28" word-spacing="0" fill="#5a6f8e" font-family="Source Sans Pro">
    <path d="m 139.58254,53.559998 c -0.81601,0 -1.64401,-0.192 -2.484,-0.576 -0.81601,-0.407999 -1.59601,-0.983999 -2.34,-1.728 l -0.108,0 -0.36,1.872 -3.276,0 0,-25.416 4.14,0 0,6.552 -0.108,2.952 c 0.74399,-0.647983 1.54799,-1.175983 2.412,-1.584 0.88799,-0.407982 1.78798,-0.611982 2.7,-0.612 1.10398,1.8e-5 2.08798,0.216018 2.952,0.648 0.86398,0.408017 1.59598,1.008017 2.196,1.8 0.59998,0.768015 1.05598,1.704014 1.368,2.808 0.31198,1.104012 0.46798,2.340011 0.468,3.708 -2e-5,1.512008 -0.21602,2.868007 -0.648,4.068 -0.40802,1.176004 -0.96002,2.172003 -1.656,2.988 -0.69602,0.816002 -1.50002,1.440001 -2.412,1.872 -0.91202,0.432 -1.86002,0.648 -2.844,0.648 m -0.864,-3.42 c 1.17598,3e-6 2.15998,-0.503996 2.952,-1.512 0.79198,-1.031994 1.18798,-2.555993 1.188,-4.572 -2e-5,-1.775989 -0.30002,-3.155987 -0.9,-4.14 -0.60002,-0.983985 -1.57202,-1.475985 -2.916,-1.476 -1.24801,1.5e-5 -2.54401,0.660014 -3.888,1.98 l 0,8.244 c 0.62399,0.552004 1.23599,0.936004 1.836,1.152 0.62399,0.216003 1.19999,0.324003 1.728,0.324" style="line-height:125%;-inkscape-font-specification:Source Sans Pro Semi-Bold"/>
    <path d="m 157.54453,53.559998 c -1.224,0 -2.364,-0.204 -3.42,-0.612 -1.056,-0.431999 -1.98,-1.043998 -2.772,-1.836 -0.792,-0.791997 -1.416,-1.751996 -1.872,-2.88 -0.432,-1.151994 -0.648,-2.459992 -0.648,-3.924 0,-1.439989 0.228,-2.735988 0.684,-3.888 0.456,-1.151986 1.056,-2.123985 1.8,-2.916 0.768,-0.791983 1.644,-1.403983 2.628,-1.836 0.984,-0.431982 1.992,-0.647982 3.024,-0.648 1.19999,1.8e-5 2.25599,0.204018 3.168,0.612 0.91199,0.408017 1.66799,0.984017 2.268,1.728 0.62399,0.744015 1.09199,1.632014 1.404,2.664 0.31199,1.032012 0.46799,2.160011 0.468,3.384 -1e-5,0.40801 -0.024,0.792009 -0.072,1.152 -0.024,0.360009 -0.06,0.648008 -0.108,0.864 l -11.232,0 c 0.192,1.584006 0.744,2.808005 1.656,3.672 0.936,0.840004 2.124,1.260003 3.564,1.26 0.76799,3e-6 1.47599,-0.107997 2.124,-0.324 0.67199,-0.239996 1.33199,-0.563996 1.98,-0.972 l 1.404,2.592 c -0.84001,0.552001 -1.77601,1.008001 -2.808,1.368 -1.03201,0.36 -2.11201,0.54 -3.24,0.54 m -4.716,-10.944 7.848,0 c -1e-5,-1.367988 -0.30001,-2.435987 -0.9,-3.204 -0.57601,-0.791985 -1.47601,-1.187985 -2.7,-1.188 -1.056,1.5e-5 -1.98,0.372015 -2.772,1.116 -0.792,0.744013 -1.284,1.836012 -1.476,3.276" style="line-height:125%;-inkscape-font-specification:Source Sans Pro Semi-Bold"/>
    <path d="m 172.86222,53.559998 c -1.03201,0 -1.90801,-0.156 -2.628,-0.468 -0.696,-0.311999 -1.272,-0.743999 -1.728,-1.296 -0.432,-0.575998 -0.756,-1.247997 -0.972,-2.016 -0.192,-0.791996 -0.288,-1.667995 -0.288,-2.628 l 0,-8.424 -2.52,0 0,-3.096 2.736,-0.18 0.504,-4.824 3.456,0 0,4.824 4.5,0 0,3.276 -4.5,0 0,8.424 c -1e-5,2.064004 0.82799,3.096003 2.484,3.096 0.31199,3e-6 0.62399,-0.036 0.936,-0.108 0.33599,-0.072 0.63599,-0.167996 0.9,-0.288 l 0.72,3.06 c -0.48001,0.168 -1.03201,0.312 -1.656,0.432 -0.60001,0.144 -1.24801,0.216 -1.944,0.216" style="line-height:125%;-inkscape-font-specification:Source Sans Pro Semi-Bold"/>
    <path d="m 181.8726,53.559998 c -1.56001,0 -2.82001,-0.468 -3.78,-1.404 -0.96,-0.959998 -1.44,-2.219996 -1.44,-3.78 0,-0.935994 0.192,-1.763993 0.576,-2.484 0.408,-0.743992 1.03199,-1.379991 1.872,-1.908 0.86399,-0.52799 1.94399,-0.97199 3.24,-1.332 1.31999,-0.359989 2.89199,-0.635989 4.716,-0.828 -0.024,-0.455988 -0.096,-0.887987 -0.216,-1.296 -0.096,-0.431987 -0.27601,-0.803986 -0.54,-1.116 -0.24001,-0.335986 -0.56401,-0.587985 -0.972,-0.756 -0.40801,-0.191985 -0.91201,-0.287985 -1.512,-0.288 -0.86401,1.5e-5 -1.71601,0.168015 -2.556,0.504 -0.81601,0.336014 -1.62001,0.744014 -2.412,1.224 l -1.512,-2.772 c 0.98399,-0.623983 2.08799,-1.163983 3.312,-1.62 1.22399,-0.455982 2.54399,-0.683982 3.96,-0.684 2.20799,1.8e-5 3.85198,0.660018 4.932,1.98 1.10398,1.296015 1.65598,3.180013 1.656,5.652 l 0,10.476 -3.42,0 -0.288,-1.944 -0.144,0 c -0.79201,0.672002 -1.64401,1.236001 -2.556,1.692 -0.88801,0.456 -1.86001,0.684 -2.916,0.684 m 1.332,-3.24 c 0.71999,3e-6 1.36799,-0.167997 1.944,-0.504 0.59999,-0.335996 1.23599,-0.815996 1.908,-1.44 l 0,-3.96 c -1.20001,0.144009 -2.20801,0.336009 -3.024,0.576 -0.81601,0.240008 -1.47601,0.516008 -1.98,0.828 -0.50401,0.288007 -0.86401,0.624007 -1.08,1.008 -0.21601,0.384006 -0.32401,0.792006 -0.324,1.224 -10e-6,0.792005 0.23999,1.368004 0.72,1.728 0.47999,0.360003 1.09199,0.540003 1.836,0.54" style="line-height:125%;-inkscape-font-specification:Source Sans Pro Semi-Bold"/>
  </g>
</svg>
