<svg xmlns="http://www.w3.org/2000/svg" viewBox="-2 -1 18 19">
  <path d="m 8,1.7519937 c -0.4943276,0 -0.9803857,0.2462449 -1.2633836,0.7350595 L 1.200699,12.042827 c -0.56599577,0.97763 0.1313919,2.205179 1.2633837,2.205179 l 11.0718353,0 c 1.131991,0 1.829379,-1.227549 1.263383,-2.205179 L 9.2633838,2.4870532 C 8.9803858,1.9982386 8.4943275,1.7519937 8,1.7519937 z" fill="#ffc107"/>
  <path d="m 8,6.1623512 c -0.4042828,0 -0.7350596,0.330777 -0.7350596,0.735059 l 0,1.4701201 c 0,0.404282 0.3307768,0.7350589 0.7350596,0.7350589 0.4042827,0 0.7350598,-0.3307769 0.7350598,-0.7350589 l 0,-1.4701201 C 8.7350598,6.4931282 8.4042827,6.1623512 8,6.1623512 z m -0.7350596,4.4103568 0,1.470119 1.4701194,0 0,-1.470119 -1.4701194,0 z" fill="#2d2d2d"/>
</svg>
